<svg xmlns="http://www.w3.org/2000/svg" width="20" height="20" viewBox="0 0 20 20" fill="none">
  <mask id="mask0_168_1542" style="mask-type:alpha" maskUnits="userSpaceOnUse" x="0" y="0" width="20" height="20">
    <rect width="20" height="20" fill="#D9D9D9"/>
  </mask>
  <g mask="url(#mask0_168_1542)">
    <path d="M5.83325 12.5C6.5277 12.5 7.11797 12.2569 7.60408 11.7708C8.0902 11.2847 8.33325 10.6944 8.33325 10C8.33325 9.30556 8.0902 8.71528 7.60408 8.22917C7.11797 7.74306 6.5277 7.5 5.83325 7.5C5.13881 7.5 4.54853 7.74306 4.06242 8.22917C3.57631 8.71528 3.33325 9.30556 3.33325 10C3.33325 10.6944 3.57631 11.2847 4.06242 11.7708C4.54853 12.2569 5.13881 12.5 5.83325 12.5ZM5.83325 15C4.44436 15 3.26381 14.5139 2.29159 13.5417C1.31936 12.5694 0.833252 11.3889 0.833252 10C0.833252 8.61111 1.31936 7.43056 2.29159 6.45833C3.26381 5.48611 4.44436 5 5.83325 5C6.95825 5 7.94089 5.31944 8.78117 5.95833C9.62145 6.59722 10.2083 7.38889 10.5416 8.33333H17.5208L19.1666 9.97917L16.2499 13.3125L14.1666 11.6667L12.4999 13.3333L10.8333 11.6667H10.5416C10.1944 12.6667 9.5902 13.4722 8.72908 14.0833C7.86797 14.6944 6.9027 15 5.83325 15Z" fill="#B3B3B3"/>
  </g>
</svg>