
<svg xmlns="http://www.w3.org/2000/svg" width="20" height="20" viewBox="0 0 20 20" fill="none">
  <mask id="mask0_168_1535" style="mask-type:alpha" maskUnits="userSpaceOnUse" x="0" y="0" width="20" height="20">
    <rect width="20" height="20" fill="#D9D9D9"/>
  </mask>
  <g mask="url(#mask0_168_1535)">
    <path d="M7.50008 11.8748C7.20841 11.8748 6.96189 11.7741 6.7605 11.5728C6.55911 11.3714 6.45841 11.1248 6.45841 10.8332C6.45841 10.5415 6.55911 10.295 6.7605 10.0936C6.96189 9.8922 7.20841 9.7915 7.50008 9.7915C7.79175 9.7915 8.03828 9.8922 8.23967 10.0936C8.44105 10.295 8.54175 10.5415 8.54175 10.8332C8.54175 11.1248 8.44105 11.3714 8.23967 11.5728C8.03828 11.7741 7.79175 11.8748 7.50008 11.8748ZM12.5001 11.8748C12.2084 11.8748 11.9619 11.7741 11.7605 11.5728C11.5591 11.3714 11.4584 11.1248 11.4584 10.8332C11.4584 10.5415 11.5591 10.295 11.7605 10.0936C11.9619 9.8922 12.2084 9.7915 12.5001 9.7915C12.7917 9.7915 13.0383 9.8922 13.2397 10.0936C13.4411 10.295 13.5417 10.5415 13.5417 10.8332C13.5417 11.1248 13.4411 11.3714 13.2397 11.5728C13.0383 11.7741 12.7917 11.8748 12.5001 11.8748ZM10.0001 16.6665C11.8612 16.6665 13.4376 16.0207 14.7292 14.729C16.0209 13.4373 16.6667 11.8609 16.6667 9.99984C16.6667 9.6665 16.6459 9.34359 16.6042 9.03109C16.5626 8.71859 16.4862 8.4165 16.3751 8.12484C16.0834 8.19428 15.7917 8.24637 15.5001 8.28109C15.2084 8.31581 14.9029 8.33317 14.5834 8.33317C13.3195 8.33317 12.1251 8.06234 11.0001 7.52067C9.87508 6.979 8.91675 6.22206 8.12508 5.24984C7.68064 6.33317 7.04522 7.27414 6.21883 8.07275C5.39244 8.87137 4.43064 9.47206 3.33341 9.87484V9.99984C3.33341 11.8609 3.97925 13.4373 5.27092 14.729C6.56258 16.0207 8.13897 16.6665 10.0001 16.6665ZM10.0001 18.3332C8.8473 18.3332 7.76397 18.1144 6.75008 17.6769C5.73619 17.2394 4.85425 16.6457 4.10425 15.8957C3.35425 15.1457 2.7605 14.2637 2.323 13.2498C1.8855 12.2359 1.66675 11.1526 1.66675 9.99984C1.66675 8.84706 1.8855 7.76373 2.323 6.74984C2.7605 5.73595 3.35425 4.854 4.10425 4.104C4.85425 3.354 5.73619 2.76025 6.75008 2.32275C7.76397 1.88525 8.8473 1.6665 10.0001 1.6665C11.1529 1.6665 12.2362 1.88525 13.2501 2.32275C14.264 2.76025 15.1459 3.354 15.8959 4.104C16.6459 4.854 17.2397 5.73595 17.6772 6.74984C18.1147 7.76373 18.3334 8.84706 18.3334 9.99984C18.3334 11.1526 18.1147 12.2359 17.6772 13.2498C17.2397 14.2637 16.6459 15.1457 15.8959 15.8957C15.1459 16.6457 14.264 17.2394 13.2501 17.6769C12.2362 18.1144 11.1529 18.3332 10.0001 18.3332Z" fill="#B3B3B3"/>
  </g>
</svg>