<svg width="1920" height="1080" viewBox="0 0 1920 1080" fill="none" xmlns="http://www.w3.org/2000/svg">
<path fill-rule="evenodd" clip-rule="evenodd" d="M-298.726 1018.18C-292.087 879.421 -147.97 798.632 -38.276 713.355C52.9097 642.467 151.435 587.203 266.629 578.672C392.413 569.356 525.617 581.301 620.323 664.58C719.896 752.139 760.578 885.736 766.444 1018.18C772.617 1157.57 765.248 1321.51 653.093 1404.55C545.377 1484.3 400.335 1397.66 266.629 1388.23C150.031 1380.01 28.8832 1417.64 -68.9104 1353.63C-186.818 1276.46 -305.46 1158.91 -298.726 1018.18Z" fill="#EFF6FF"/>
<path fill-rule="evenodd" clip-rule="evenodd" d="M1596.9 -598.679C1759.48 -590.902 1854.14 -422.067 1954.06 -293.56C2037.12 -186.735 2101.87 -71.3115 2111.87 63.6398C2122.78 210.996 2108.79 367.046 2011.21 477.995C1908.62 594.646 1752.08 642.306 1596.9 649.177C1433.58 656.409 1241.49 647.775 1144.2 516.386C1050.76 390.195 1152.27 220.277 1163.32 63.6398C1172.95 -72.9568 1128.85 -214.882 1203.85 -329.448C1294.27 -467.577 1432 -606.568 1596.9 -598.679Z" fill="#EFF6FF"/>
<path d="M1630 915C1630 845.964 1685.96 790 1755 790C1824.04 790 1880 845.964 1880 915V1040H1755C1685.96 1040 1630 984.036 1630 915Z" fill="#FCCADA"/>
<circle r="195" stroke="#60B7EB" stroke-width="10"/>
<circle cx="125" cy="1025" r="15" fill="#60B7EB"/>
<ellipse cx="195.5" cy="1025" rx="15.5" ry="15" fill="#60B7EB"/>
<circle cx="55" cy="1025" r="15" fill="#60B7EB"/>
</svg>
