<svg width="18" height="18" viewBox="0 0 18 18" fill="none" xmlns="http://www.w3.org/2000/svg">
<path d="M8.99984 17.3332C7.84706 17.3332 6.76373 17.1144 5.74984 16.6769C4.73595 16.2394 3.854 15.6457 3.104 14.8957C2.354 14.1457 1.76025 13.2637 1.32275 12.2498C0.885254 11.2359 0.666504 10.1526 0.666504 8.99984C0.666504 7.84706 0.885254 6.76373 1.32275 5.74984C1.76025 4.73595 2.354 3.854 3.104 3.104C3.854 2.354 4.73595 1.76025 5.74984 1.32275C6.76373 0.885254 7.84706 0.666504 8.99984 0.666504C10.1526 0.666504 11.2359 0.885254 12.2498 1.32275C13.2637 1.76025 14.1457 2.354 14.8957 3.104C15.6457 3.854 16.2394 4.73595 16.6769 5.74984C17.1144 6.76373 17.3332 7.84706 17.3332 8.99984V10.2082C17.3332 11.0276 17.0519 11.7255 16.4894 12.3019C15.9269 12.8783 15.2359 13.1665 14.4165 13.1665C13.9304 13.1665 13.4721 13.0623 13.0415 12.854C12.6109 12.6457 12.2498 12.3471 11.9582 11.9582C11.5554 12.3609 11.1005 12.663 10.5936 12.8644C10.0866 13.0658 9.55539 13.1665 8.99984 13.1665C7.84706 13.1665 6.86442 12.7603 6.05192 11.9478C5.23942 11.1353 4.83317 10.1526 4.83317 8.99984C4.83317 7.84706 5.23942 6.86442 6.05192 6.05192C6.86442 5.23942 7.84706 4.83317 8.99984 4.83317C10.1526 4.83317 11.1353 5.23942 11.9478 6.05192C12.7603 6.86442 13.1665 7.84706 13.1665 8.99984V10.2082C13.1665 10.5693 13.2846 10.8748 13.5207 11.1248C13.7568 11.3748 14.0554 11.4998 14.4165 11.4998C14.7776 11.4998 15.0762 11.3748 15.3123 11.1248C15.5484 10.8748 15.6665 10.5693 15.6665 10.2082V8.99984C15.6665 7.13873 15.0207 5.56234 13.729 4.27067C12.4373 2.979 10.8609 2.33317 8.99984 2.33317C7.13873 2.33317 5.56234 2.979 4.27067 4.27067C2.979 5.56234 2.33317 7.13873 2.33317 8.99984C2.33317 10.8609 2.979 12.4373 4.27067 13.729C5.56234 15.0207 7.13873 15.6665 8.99984 15.6665H13.1665V17.3332H8.99984ZM8.99984 11.4998C9.69428 11.4998 10.2846 11.2568 10.7707 10.7707C11.2568 10.2846 11.4998 9.69428 11.4998 8.99984C11.4998 8.30539 11.2568 7.71512 10.7707 7.229C10.2846 6.74289 9.69428 6.49984 8.99984 6.49984C8.30539 6.49984 7.71512 6.74289 7.229 7.229C6.74289 7.71512 6.49984 8.30539 6.49984 8.99984C6.49984 9.69428 6.74289 10.2846 7.229 10.7707C7.71512 11.2568 8.30539 11.4998 8.99984 11.4998Z" fill="#B3B3B3"/>
</svg>
